<?xml version="1.0" encoding="UTF-8"?>
<svg width="200" height="200" viewBox="0 0 200 200" fill="none" xmlns="http://www.w3.org/2000/svg">
  <!-- DepED Text -->
  <g transform="translate(20, 60) scale(0.8)">
    <path d="M0 0 H40 V60 H0 Z" fill="#004AAD"/>
    <path d="M45 0 H70 V60 H45 Z" fill="#004AAD"/>
    <path d="M75 0 Q95 0 95 20 V40 Q95 60 75 60 H75 Z" fill="#004AAD"/>
    <path d="M160 0 H200 V30 H180 V60 H160 Z" fill="#EE1C25"/>
    <path d="M140 0 H155 V60 H140 Z" fill="#EE1C25"/>
  </g>
  
  <!-- Torch -->
  <g transform="translate(95, 20)">
    <path d="M0 0 Q10 -5 20 0 Q25 10 20 20 Q15 25 10 25 Q5 25 0 20 Q-5 10 0 0" fill="#EE1C25"/>
    <path d="M8 5 Q12 3 16 5 Q18 10 16 15 Q14 17 12 17 Q10 17 8 15 Q6 10 8 5" fill="#FDB913"/>
    <rect x="8" y="20" width="8" height="25" fill="#004AAD"/>
  </g>
  
  <!-- Text -->
  <text x="100" y="140" text-anchor="middle" fill="#004AAD" font-family="Arial" font-size="12" font-weight="bold">
    DEPARTMENT OF EDUCATION
  </text>
  <text x="100" y="160" text-anchor="middle" fill="#004AAD" font-family="Arial" font-size="10">
    Republic of the Philippines
  </text>
</svg> 