<?xml version="1.0" encoding="UTF-8"?>
<svg width="200" height="200" viewBox="0 0 200 200" fill="none" xmlns="http://www.w3.org/2000/svg">
  <!-- Diamond Grid -->
  <g transform="translate(20, 20) scale(0.8)">
    <!-- Green Diamond (Book) -->
    <path d="M100 0 L150 50 L100 100 L50 50 Z" fill="#00A651"/>
    <path d="M70 40 L130 40 Q130 60 100 70 Q70 60 70 40" fill="white" stroke="white" stroke-width="2"/>
    <path d="M80 30 L120 30 L120 40 L80 40 Z" fill="white"/>
    
    <!-- Red Diamond (Science) -->
    <path d="M150 50 L200 100 L150 150 L100 100 Z" fill="#ED1C24"/>
    <circle cx="150" cy="85" r="8" fill="white"/>
    <circle cx="170" cy="105" r="8" fill="white"/>
    <circle cx="150" cy="125" r="8" fill="white"/>
    
    <!-- Purple Diamond (Digital) -->
    <path d="M100 100 L150 150 L100 200 L50 150 Z" fill="#662D91"/>
    <path d="M85 130 L115 130 L115 170 L85 170 Z" fill="white"/>
    <path d="M90 140 L110 140" stroke="white" stroke-width="2"/>
    <path d="M90 150 L110 150" stroke="white" stroke-width="2"/>
    <path d="M90 160 L110 160" stroke="white" stroke-width="2"/>
    
    <!-- Blue Diamond (Technology) -->
    <path d="M50 50 L100 100 L50 150 L0 100 Z" fill="#2E3192"/>
    <path d="M30 90 L70 90 L70 110 L30 110 Z" fill="white"/>
    <path d="M20 100 L30 90 M20 100 L30 110" stroke="white" stroke-width="2"/>
    <path d="M70 90 L80 100 M70 110 L80 100" stroke="white" stroke-width="2"/>
  </g>
  
  <!-- Text -->
  <text x="100" y="180" text-anchor="middle" fill="#004AAD" font-family="Arial" font-size="10" font-weight="bold">
    BUREAU OF LEARNING RESOURCES
  </text>
</svg> 